<svg xmlns="http://www.w3.org/2000/svg" viewBox="0 0 100 100" fill="#0ed0ff">
  <title>Weightlifting Icon</title>
  <desc>Icône représentant un haltérophile</desc>

  <!-- Barre d'haltère plus grande pour l'haltérophilie -->
  <rect x="20" y="50" width="60" height="5" rx="2" ry="2" />

  <!-- Plaques d'haltère plus volumineuses -->
  <rect x="10" y="40" width="10" height="25" rx="2" ry="2" />
  <rect x="80" y="40" width="10" height="25" rx="2" ry="2" />
  <rect x="5" y="42" width="5" height="20" rx="1" ry="1" opacity="0.7"/>
  <rect x="90" y="42" width="5" height="20" rx="1" ry="1" opacity="0.7"/>

  <!-- Silhouette d'haltérophile en position snatch (arraché) -->
  <circle cx="50" cy="20" r="8" />
  <path d="M35,28 C40,35 45,25 50,28 C55,25 60,35 65,28" stroke="#0ed0ff" stroke-width="3" fill="none" />
  <path d="M40,28 L35,50 L40,65 M60,28 L65,50 L60,65" stroke="#0ed0ff" stroke-width="2" fill="none" />
  <line x1="35" y1="50" x2="65" y2="50" stroke="#0ed0ff" stroke-width="3"/>

  <!-- Plateforme d'haltérophilie -->
  <rect x="25" y="75" width="50" height="5" rx="0" ry="0" opacity="0.5"/>
</svg>